<svg width="16" height="24" viewBox="0 0 16 24" xmlns="http://www.w3.org/2000/svg"><title>ic_block</title><g fill="none" fill-rule="evenodd"><path d="M-4 0h24v24H-4z"/><path d="M15.994 15.993c.005 3.882-2.78 7.207-6.602 7.884-3.822.677-7.58-1.49-8.908-5.137C-.846 15.093.638 11.018 4 9.077v-5.08C4 1.79 5.79 0 7.997 0s3.998 1.79 3.998 3.998v5.078c2.473 1.426 3.997 4.063 3.998 6.917zM4 9.077l.13-.08H4v.08zM7.997 2c-1.104 0-2 .896-2 2v4.26c1.31-.352 2.69-.352 4 0V3.997c0-1.104-.896-2-2-2v.003zM11.996 9h-.13l.13.08v-.082.002zm-3.998.987c-2.43 0-4.623 1.463-5.554 3.708-.93 2.246-.417 4.83 1.302 6.55 1.718 1.72 4.303 2.234 6.55 1.304 2.245-.93 3.71-3.122 3.71-5.553-.004-3.317-2.69-6.006-6.008-6.01zm0 8.01c-.552 0-1-.448-1-1v-2c0-.55.448-1 1-1s1 .45 1 1v2c-.002.55-.45.998-1 .998v.002z" fill="#F9BA00"/></g></svg>