<svg width="40" height="40" viewBox="0 0 40 40" xmlns="http://www.w3.org/2000/svg"><title>ic_card_visa</title><defs><linearGradient x1="-.05%" y1="49.955%" x2="100.042%" y2="49.955%" id="a"><stop stop-color="#231F5C" offset="0%"/><stop stop-color="#034EA2" offset="100%"/></linearGradient></defs><g fill="none" fill-rule="evenodd"><path d="M0 0h40v40H0z"/><path d="M15.914 15.197L11.567 26.29H8.74l-2.135-8.842c-.123-.542-.246-.74-.63-.97-.645-.377-1.705-.722-2.642-.936l.062-.328h4.562c.584 0 1.106.41 1.23 1.133l1.136 6.41 2.795-7.543h2.796v-.017zm11.106 7.477c.015-2.925-3.78-3.09-3.763-4.388.015-.394.368-.82 1.136-.936.384-.05 1.444-.1 2.642.493l.477-2.35c-.646-.247-1.475-.493-2.504-.493-2.642 0-4.516 1.512-4.532 3.664-.015 1.594 1.337 2.482 2.35 3.024 1.045.542 1.398.887 1.398 1.38-.015.74-.83 1.068-1.597 1.085-1.352.016-2.135-.395-2.75-.707l-.49 2.432c.628.312 1.78.575 2.98.59 2.794-.015 4.638-1.494 4.653-3.794zm6.99 3.615h2.472l-2.166-11.093h-2.288c-.523 0-.953.312-1.137.805l-4.024 10.27h2.81l.554-1.66h3.44l.34 1.677zm-2.98-3.928l1.412-4.158.815 4.158H31.03zm-11.29-7.165L17.526 26.29H14.84l2.21-11.093h2.69z" fill="url(#a)"/></g></svg>