<svg width="40" height="40" viewBox="0 0 40 40" xmlns="http://www.w3.org/2000/svg"><title>ic_card_diners_club</title><defs><path id="a" d="M0 0h33.333v25H0"/></defs><g fill="none" fill-rule="evenodd"><path d="M0 0h40v40H0z"/><path d="M4.683 22.69c0-.627-.313-.586-.612-.592v-.18c.26.012.526.012.786.012.28 0 .66-.013 1.153-.013 1.723 0 2.663 1.204 2.663 2.438 0 .69-.387 2.424-2.744 2.424-.34 0-.654-.015-.967-.015-.3 0-.593.007-.892.014v-.182c.4-.042.593-.056.613-.53V22.69zm.652 3.267c0 .536.367.6.693.6 1.44 0 1.91-1.136 1.91-2.174 0-1.303-.798-2.243-2.083-2.243-.273 0-.4.02-.52.028v3.79zM8.906 26.598h.126c.187 0 .32 0 .32-.23V24.48c0-.306-.1-.348-.347-.487v-.112c.313-.097.687-.228.713-.25.047-.027.086-.035.12-.035.033 0 .047.042.047.098v2.675c0 .23.146.23.333.23h.113v.18c-.226 0-.46-.013-.698-.013-.24 0-.48.007-.726.014v-.182zm.712-4.075c-.173 0-.326-.167-.326-.348 0-.175.16-.335.326-.335.173 0 .327.146.327.335 0 .188-.147.348-.327.348zM10.964 24.522c0-.257-.074-.327-.386-.46v-.132c.286-.097.558-.188.878-.335.02 0 .04.014.04.07v.453c.38-.285.707-.523 1.153-.523.565 0 .764.432.764.976v1.798c0 .23.147.23.334.23h.12v.18c-.234 0-.467-.013-.706-.013-.24 0-.48.007-.72.014v-.182h.12c.187 0 .32 0 .32-.23v-1.804c0-.397-.233-.592-.613-.592-.214 0-.554.18-.774.334v2.062c0 .23.147.23.334.23h.12v.18c-.234 0-.467-.013-.707-.013-.24 0-.48.007-.72.014v-.182h.12c.188 0 .32 0 .32-.23v-1.846M14.374 24.857c-.014.062-.014.167 0 .404.04.662.446 1.205.98 1.205.365 0 .652-.21.898-.466l.093.097c-.307.425-.686.787-1.232.787-1.06 0-1.272-1.073-1.272-1.52 0-1.364.88-1.77 1.346-1.77.54 0 1.12.356 1.126 1.095 0 .04 0 .083-.006.125l-.06.042h-1.872zm1.18-.223c.165 0 .185-.09.185-.175 0-.356-.207-.64-.58-.64-.406 0-.686.312-.766.814h1.16zM16.465 26.598h.18c.186 0 .32 0 .32-.23V24.41c0-.215-.247-.257-.347-.313v-.104c.486-.216.753-.398.814-.398.04 0 .06.02.06.09v.628h.013c.166-.27.446-.718.852-.718.166 0 .38.12.38.37 0 .188-.127.356-.313.356-.207 0-.207-.167-.44-.167-.114 0-.487.16-.487.578v1.638c0 .23.133.23.32.23h.373v.18c-.367-.006-.645-.013-.932-.013-.273 0-.553.007-.793.014v-.182M19.03 25.81c.086.46.352.85.84.85.39 0 .537-.25.537-.494 0-.822-1.45-.557-1.45-1.68 0-.39.3-.89 1.032-.89.21 0 .498.063.757.202l.047.71h-.153c-.066-.44-.298-.69-.725-.69-.267 0-.52.16-.52.46 0 .816 1.545.565 1.545 1.658 0 .46-.352.948-1.145.948-.266 0-.58-.098-.812-.237l-.074-.8.12-.036M26.954 23.177h-.166c-.127-.814-.68-1.142-1.425-1.142-.767 0-1.88.536-1.88 2.208 0 1.408.96 2.418 1.986 2.418.658 0 1.205-.473 1.338-1.205l.153.042-.152 1.017c-.28.182-1.032.37-1.472.37-1.558 0-2.544-1.052-2.544-2.62 0-1.428 1.22-2.452 2.524-2.452.54 0 1.06.18 1.572.37l.066.995M27.195 26.598h.126c.188 0 .32 0 .32-.23v-3.88c0-.453-.1-.467-.352-.543v-.112c.266-.09.546-.216.686-.3.072-.04.126-.076.146-.076.04 0 .054.042.054.098v4.813c0 .23.146.23.333.23h.112v.18c-.227 0-.46-.013-.7-.013-.24 0-.48.007-.725.014v-.182M31.47 26.396c0 .126.074.132.186.132.08 0 .18-.006.268-.006v.146c-.287.028-.833.174-.96.216l-.033-.02v-.566c-.4.342-.705.586-1.18.586-.358 0-.73-.244-.73-.83v-1.783c0-.18-.027-.354-.4-.39v-.13c.24-.008.772-.05.86-.05.072 0 .072.05.072.202V25.7c0 .21 0 .807.58.807.226 0 .526-.18.805-.424v-1.875c0-.14-.32-.215-.56-.285v-.125c.6-.042.973-.098 1.04-.098.054 0 .054.05.054.126v2.57M32.796 24.097c.266-.236.626-.502.992-.502.773 0 1.24.705 1.24 1.464 0 .91-.64 1.824-1.593 1.824-.493 0-.753-.168-.926-.244l-.2.16-.14-.076c.06-.41.093-.815.093-1.24v-2.996c0-.453-.1-.467-.353-.543v-.112c.266-.09.546-.216.686-.3.073-.04.126-.076.147-.076.04 0 .053.042.053.098v2.542zm0 1.895c0 .264.24.71.686.71.712 0 1.012-.73 1.012-1.35 0-.753-.546-1.38-1.065-1.38-.25 0-.455.167-.634.328v1.692zM4.063 30.83h.05c.13 0 .27-.02.27-.216v-1.986c0-.198-.14-.216-.27-.216h-.05v-.114c.14 0 .36.015.537.015.18 0 .398-.015.57-.015v.114h-.053c-.13 0-.267.018-.267.216v1.986c0 .197.138.216.267.216h.052v.114c-.175 0-.393-.015-.574-.015-.178 0-.392.014-.533.014v-.114" fill="#1A1918"/><path d="M5.17 30.96c-.177 0-.394-.015-.574-.015-.177 0-.39.015-.533.015h-.016v-.147h.067c.13-.003.25-.014.252-.2V28.63c0-.186-.12-.198-.252-.2h-.067v-.147h.016c.142 0 .36.016.537.016.18 0 .397-.015.57-.015h.015v.148h-.067c-.132.002-.252.014-.253.2v1.986c0 .185.12.196.253.2h.067v.146H5.17zm-.017-.033v-.08h-.035c-.13 0-.284-.024-.284-.233v-1.986c0-.21.154-.233.284-.233h.035v-.08c-.167 0-.377.014-.553.014-.172 0-.38-.015-.52-.016v.08h.034c.13 0 .283.024.283.234v1.986c0 .21-.154.233-.283.233H4.08v.08c.14 0 .344-.015.516-.015.177 0 .386.014.557.015zM7.658 30.196l.007-.007v-1.422c0-.31-.206-.357-.315-.357h-.08V28.3c.17 0 .337.015.507.015.15 0 .298-.015.446-.015v.113H8.17c-.153 0-.324.032-.324.483v1.724c0 .133.004.266.022.384H7.73l-1.866-2.176v1.562c0 .33.06.444.34.444h.062v.114c-.156 0-.31-.015-.467-.015-.164 0-.33.014-.494.014v-.114h.05c.25 0 .327-.18.327-.48V28.75c0-.212-.167-.34-.33-.34h-.047v-.114c.137 0 .28.015.416.015.11 0 .214-.015.323-.015l1.613 1.898" fill="#1A1918"/><path d="M7.868 31.016l-.15-.005-1.84-2.143v1.52c.006.33.054.423.326.426h.078v.147h-.016c-.157 0-.313-.015-.467-.015-.164 0-.33.015-.494.015H5.29v-.147h.067c.24 0 .308-.162.31-.464v-1.597c0-.202-.16-.325-.314-.325H5.29v-.147h.016c.138 0 .28.016.416.016.108 0 .213-.015.335-.01l1.593 1.876v-1.394c-.002-.3-.195-.338-.3-.34h-.096v-.147h.016c.17 0 .338.016.507.016.148 0 .296-.015.446-.015h.016v.148h-.07c-.15.004-.304.018-.308.465v1.724c0 .133.004.265.02.38l.004.02h-.018zm-.138-.033h.12c-.016-.114-.02-.24-.02-.366v-1.724c0-.455.183-.498.34-.498h.037v-.08c-.142 0-.285.014-.43.014-.166 0-.327-.015-.49-.016v.08h.063c.11 0 .33.053.33.374L7.677 30.2l-.007.008-.013.012-1.612-1.906c-.108 0-.212.015-.323.015-.133 0-.27-.015-.4-.016v.08h.03c.17 0 .346.137.346.36v1.595c0 .302-.08.496-.34.497H5.32v.08c.157 0 .318-.015.477-.015.15 0 .3.014.45.015v-.08h-.046c-.285 0-.355-.13-.356-.46V28.78l1.882 2.2zm-.072-.783l.016-.014-.016.014zm-.007-.01v-.002l-.003-.003.004.005zM8.766 28.487c-.272 0-.282.07-.337.345h-.11c.015-.106.033-.212.044-.322.015-.107.022-.212.022-.322h.087c.03.114.12.11.218.11h1.87c.098 0 .19-.004.196-.118l.087.016c-.014.102-.03.204-.04.307-.007.102-.007.204-.007.306l-.11.04c-.006-.14-.024-.363-.267-.363h-.595v2.017c0 .292.127.326.3.326h.07v.114c-.142 0-.396-.015-.59-.015-.22 0-.473.014-.614.014v-.114h.07c.2 0 .3-.02.3-.318v-2.025h-.594" fill="#1A1918"/><path d="M10.195 30.96c-.143 0-.397-.015-.59-.015-.22 0-.472.015-.614.015h-.015v-.147h.085c.2-.005.28-.007.285-.3v-2.01h-.58v-.033h.61v2.042c0 .304-.116.335-.315.335h-.054v.08c.143 0 .387-.015.598-.015.19 0 .43.014.574.015v-.08h-.053c-.175 0-.316-.045-.316-.343V28.47h.61c.242 0 .274.217.282.358l.078-.03c0-.1 0-.198.007-.298.01-.098.024-.194.038-.29l-.055-.01c-.017.11-.12.116-.21.114H8.672c-.086 0-.178-.004-.21-.11H8.4c0 .105-.008.207-.022.308-.01.104-.027.204-.04.304h.077c.047-.264.078-.35.35-.346v.033c-.27.006-.263.053-.322.333l-.003.013h-.14l.002-.02c.015-.106.034-.213.044-.323.015-.105.022-.21.022-.32v-.016h.115l.003.013c.024.096.09.096.184.098h1.888c.1 0 .174-.002.18-.1l.002-.02.016.004.103.017-.002.018c-.014.102-.03.204-.04.305-.006.102-.006.204-.006.306v.01l-.01.005-.13.05v-.023c-.01-.142-.024-.35-.253-.35h-.58v2.002c.004.286.112.306.285.31h.085v.146h-.015M10.958 30.83h.05c.13 0 .27-.02.27-.216v-1.986c0-.198-.14-.216-.27-.216h-.05v-.114c.22 0 .598.015.902.015.305 0 .682-.015.928-.015-.006.163-.003.413.008.58l-.11.03c-.017-.246-.06-.443-.44-.443h-.504v.992h.43c.218 0 .265-.128.287-.333h.107c-.007.148-.01.296-.01.444 0 .144.003.288.01.432l-.108.022c-.023-.227-.034-.375-.284-.375h-.434v.883c0 .247.21.247.44.247.436 0 .628-.03.737-.462l.1.026c-.047.202-.09.402-.123.604-.232 0-.65-.015-.974-.015-.327 0-.758.014-.965.014v-.114" fill="#1A1918"/><path d="M12.897 30.96c-.232 0-.65-.016-.975-.016-.326 0-.757.016-.964.016h-.015v-.147h.066c.13-.002.25-.014.25-.2V28.63c0-.185-.12-.198-.25-.2h-.067v-.147h.015c.222 0 .6.016.902.016.305 0 .68-.015.928-.015h.016v.02c-.003.055-.004.123-.004.194 0 .13.004.275.01.383v.013l-.01.004-.128.035v-.02c-.022-.247-.054-.426-.427-.43h-.488v.96h.415c.21-.002.246-.113.27-.318l.002-.015h.14v.018c-.008.148-.012.295-.012.443 0 .143.004.287.01.43v.015l-.012.003-.126.026v-.018c-.026-.23-.028-.358-.268-.36h-.42v.866c0 .23.19.23.427.23.437-.002.61-.025.72-.45l.004-.015.015.002.117.032-.005.015c-.047.2-.09.4-.123.6l-.002.015h-.013zm-.013-.033c.03-.192.073-.383.117-.574l-.07-.02c-.11.425-.32.463-.747.46-.228 0-.456 0-.458-.263v-.9h.45c.254-.002.28.158.298.373l.078-.016c-.006-.14-.01-.28-.01-.42 0-.142.004-.284.01-.427h-.077c-.02.198-.08.336-.3.334h-.448v-1.026h.52c.377-.003.44.2.456.44l.08-.023c-.007-.107-.012-.244-.012-.37 0-.066.002-.127.004-.18-.246 0-.614.014-.912.014-.298 0-.664-.015-.886-.016v.08h.035c.128 0 .282.024.283.234v1.986c0 .21-.155.232-.284.233h-.036v.08c.21 0 .63-.015.948-.015.32 0 .728.014.962.015zM13.51 28.7c0-.277-.146-.29-.258-.29h-.066V28.3c.117 0 .34.015.563.015.216 0 .39-.015.582-.015.456 0 .862.128.862.667 0 .34-.217.55-.503.667l.62.97c.102.16.174.205.352.228v.114c-.12 0-.236-.015-.355-.015-.113 0-.23.014-.34.014-.28-.383-.52-.792-.755-1.23h-.24v.813c0 .292.132.303.298.303h.065v.114c-.207 0-.416-.015-.623-.015-.174 0-.344.014-.526.014v-.114h.066c.134 0 .258-.064.258-.205V28.7zm.463.878h.177c.363 0 .56-.143.56-.59 0-.338-.208-.554-.53-.554-.11 0-.156.012-.207.015v1.128z" fill="#1A1918"/><path d="M15.662 30.96c-.122 0-.237-.015-.356-.015-.11 0-.226.015-.353.008-.278-.38-.516-.788-.75-1.22h-.214v.793c.003.285.112.283.28.287h.08v.147h-.015c-.207 0-.418-.015-.623-.015-.173 0-.343.015-.526.015h-.015v-.147h.082c.13 0 .24-.06.24-.188V28.7c-.002-.27-.128-.268-.24-.272h-.08v-.147h.014c.118 0 .342.016.563.016.215 0 .39-.015.582-.015.457.002.877.134.878.684 0 .342-.216.556-.495.675l.608.953c.1.157.165.197.34.22l.014.002v.145h-.015zm-1.69-1.26h.25l.003.007c.236.436.474.845.74 1.22.11 0 .228-.015.34-.015.116 0 .228.013.34.015v-.083c-.17-.022-.25-.075-.348-.233l-.63-.985.017-.008c.284-.117.494-.32.495-.653-.002-.525-.393-.647-.848-.65-.19 0-.365.015-.583.015-.214 0-.43-.015-.548-.016v.08h.05c.112 0 .272.02.272.305v1.925c0 .153-.136.222-.272.222h-.05v.08c.174 0 .34-.015.51-.015.202 0 .407.014.607.015v-.08h-.05c-.165 0-.313-.022-.313-.32v-.828h.016zm0-.105h-.015v-1.16l.014-.002c.05-.004.1-.015.21-.015.33 0 .544.225.544.57 0 .453-.208.607-.574.607h-.177zm.178-.033c.36-.003.54-.133.543-.574-.002-.33-.198-.536-.514-.538-.1 0-.145.01-.19.014v1.098h.16zM18.122 30.196l.006-.007v-1.422c0-.31-.205-.357-.314-.357h-.08V28.3c.17 0 .337.015.508.015.15 0 .296-.015.446-.015v.113h-.055c-.152 0-.322.032-.322.483v1.724c0 .133.004.266.022.384h-.137l-1.866-2.176v1.562c0 .33.06.444.34.444h.06v.114c-.155 0-.31-.015-.467-.015-.163 0-.33.014-.493.014v-.114h.05c.25 0 .327-.18.327-.48V28.75c0-.212-.167-.34-.33-.34h-.047v-.114c.137 0 .28.015.417.015.108 0 .213-.015.322-.015l1.612 1.898" fill="#1A1918"/><path d="M18.332 31.016l-.15-.005-1.838-2.143v1.52c.004.33.052.423.325.426h.076v.147h-.016c-.157 0-.312-.016-.468-.016-.16 0-.33.016-.492.016h-.016v-.147h.067c.24 0 .308-.162.31-.465v-1.596c0-.202-.158-.324-.313-.324h-.063v-.147h.016c.138 0 .28.016.417.016.106 0 .21-.015.333-.01l1.593 1.876v-1.394c0-.3-.194-.338-.3-.34h-.095v-.147h.016c.17 0 .338.016.508.016.147 0 .296-.015.445-.015h.016v.148h-.07c-.15.004-.303.018-.307.465v1.724c0 .133.003.265.022.38v.02h-.016zm-.137-.033h.12c-.017-.113-.02-.24-.02-.366v-1.724c0-.455.183-.497.338-.498h.038v-.08c-.14 0-.285.014-.428.014-.167 0-.328-.015-.492-.016v.08h.064c.11.002.33.053.33.374L18.14 30.2l-.007.008-.01.013-1.614-1.906c-.108 0-.213.015-.323.015-.134 0-.27-.015-.4-.016v.08h.03c.17.002.345.136.345.358v1.596c0 .304-.082.498-.34.5h-.036v.08c.156-.002.318-.016.476-.016.152 0 .303.014.453.015v-.08h-.046c-.286 0-.357-.13-.358-.46V28.78l1.883 2.2zm-.073-.783l.016-.014-.016.014zm-.008-.01l-.003-.005.004.005zM19.27 30.402c-.036.128-.08.228-.08.295 0 .114.153.133.272.133h.04v.114c-.145-.01-.293-.015-.44-.015-.13 0-.26.005-.39.014v-.114h.022c.14 0 .26-.088.315-.247l.58-1.74c.046-.14.11-.33.134-.47.115-.04.26-.117.33-.163.01-.003.017-.007.028-.007.01 0 .018 0 .025.012l.033.094.667 1.982c.044.132.087.272.133.387.044.105.12.15.24.15h.022v.114c-.163-.01-.327-.015-.5-.015-.178 0-.36.005-.544.014v-.114h.04c.083 0 .225-.015.225-.11 0-.05-.033-.15-.073-.273l-.14-.44h-.824l-.116.395zm.53-1.68h-.008l-.337 1.073h.677l-.333-1.073z" fill="#1A1918"/><path d="M21.2 30.96c-.162-.008-.325-.016-.498-.016-.178 0-.358.008-.543.016h-.018v-.147h.056c.084 0 .208-.02.21-.093 0-.043-.033-.147-.073-.268l-.138-.43h-.8l-.112.385c-.036.128-.08.23-.08.29 0 .093.137.116.257.116h.056v.148H19.5c-.144-.008-.292-.016-.437-.016-.13 0-.26.008-.39.016h-.017v-.147h.038c.135 0 .247-.08.3-.235l.58-1.74c.047-.14.113-.33.144-.48.114-.04.26-.117.33-.163.01-.004.02-.01.034-.01.01 0 .028.003.04.023l.033.096.667 1.982c.043.133.086.273.133.385.042.102.11.142.225.143h.037v.148H21.2zm-1.026-.034c.18-.007.355-.014.528-.014.168 0 .326.007.484.014v-.08h-.006c-.124.002-.21-.05-.254-.16-.047-.116-.09-.257-.134-.39l-.667-1.982c-.01-.03-.02-.064-.03-.09-.004-.005-.004-.005-.006-.005h-.008c-.008 0-.012.002-.02.004-.07.047-.216.122-.324.152-.022.143-.087.333-.134.473l-.58 1.74c-.055.163-.183.257-.33.257h-.006v.08c.124-.008.25-.015.375-.015.14 0 .284.007.422.014v-.08h-.023c-.118 0-.283-.014-.287-.15 0-.074.044-.17.08-.3l.015.006-.015-.006.12-.405h.844l.144.452c.04.12.074.223.074.278-.005.116-.158.125-.24.127h-.024v.08zm-.74-1.114l.346-1.106h.02v.016l-.004.002.003-.002v-.016h.01l.345 1.106h-.722zm.042-.034h.635l-.315-1.015-.32 1.015zm.308-1.05l.01-.003-.01.003zM21.36 28.487c-.27 0-.28.07-.336.345h-.11c.015-.106.034-.212.045-.322.013-.107.02-.212.02-.322h.088c.028.114.12.11.217.11h1.87c.097 0 .188-.004.195-.118l.087.016c-.014.102-.028.204-.04.307-.007.102-.007.204-.007.306l-.11.04c-.005-.14-.023-.363-.267-.363h-.594v2.017c0 .292.126.326.3.326h.07v.114c-.142 0-.396-.015-.592-.015-.217 0-.47.014-.612.014v-.114h.07c.198 0 .3-.02.3-.318v-2.025h-.595" fill="#1A1918"/><path d="M22.79 30.96c-.143 0-.397-.015-.592-.015-.217 0-.47.015-.612.015h-.016v-.147h.085c.2-.005.28-.007.284-.3v-2.01h-.58v-.033h.61v2.042c0 .304-.116.334-.315.335H21.6v.08c.144 0 .388-.015.598-.015.19 0 .432.014.575.015v-.08h-.053c-.175 0-.316-.045-.316-.343V28.47h.61c.243 0 .275.217.282.358l.078-.03c0-.1 0-.198.008-.297.01-.097.024-.194.037-.29l-.056-.01c-.016.11-.12.116-.21.114h-1.888c-.085 0-.178-.004-.21-.11h-.06c0 .105-.008.207-.022.308-.01.104-.027.205-.04.304h.077c.048-.264.08-.35.35-.346v.033c-.267.005-.262.053-.32.333l-.003.013h-.14l.002-.02c.014-.106.032-.213.043-.322.014-.106.02-.21.02-.32v-.017h.116l.002.013c.026.096.092.096.184.098h1.89c.1 0 .172-.002.18-.1v-.02l.016.004.103.017-.002.018c-.015.102-.03.204-.04.305-.007.102-.007.204-.007.306v.01l-.01.005-.13.05v-.023c-.01-.142-.024-.35-.253-.35h-.578v2.002c.003.286.112.306.285.31h.084v.146h-.015M23.57 30.83h.052c.13 0 .268-.02.268-.216v-1.986c0-.198-.138-.216-.268-.216h-.05v-.114c.14 0 .357.015.535.015.18 0 .4-.015.57-.015v.114h-.05c-.132 0-.27.018-.27.216v1.986c0 .197.138.216.27.216h.05v.114c-.174 0-.392-.015-.573-.015-.178 0-.392.014-.533.014v-.114" fill="#1A1918"/><path d="M24.677 30.96c-.176 0-.392-.016-.573-.016-.177 0-.39.016-.533.016h-.015v-.147h.067c.13-.002.25-.014.252-.2V28.63c0-.185-.122-.198-.252-.2h-.067v-.147h.016c.143 0 .36.016.537.016.18 0 .398-.015.57-.015h.015v.148h-.066c-.133.002-.252.015-.253.2v1.986c0 .185.12.197.253.2h.066v.146h-.015zm-.017-.033v-.08h-.034c-.13 0-.284-.024-.284-.233v-1.986c0-.21.154-.233.284-.233h.034v-.08c-.167 0-.377.014-.553.014-.172 0-.38-.015-.52-.016v.08h.035c.13 0 .283.024.283.234v1.986c0 .21-.154.233-.283.233h-.035v.08c.14-.002.344-.015.517-.015.176 0 .385.014.556.015zM26.122 28.24c.772 0 1.388.502 1.388 1.31 0 .87-.598 1.45-1.37 1.45-.768 0-1.355-.545-1.355-1.36 0-.79.583-1.4 1.337-1.4m.054 2.594c.704 0 .826-.65.826-1.202 0-.554-.285-1.224-.887-1.224-.634 0-.823.59-.823 1.1 0 .677.298 1.326.884 1.326" fill="#1A1918"/><path d="M24.77 29.64c0-.798.59-1.414 1.35-1.416v.033c-.744 0-1.32.603-1.32 1.382 0 .805.58 1.343 1.34 1.343.764 0 1.354-.57 1.355-1.434 0-.8-.607-1.292-1.374-1.293v-.033c.78 0 1.404.507 1.405 1.325 0 .88-.606 1.465-1.385 1.466-.775 0-1.37-.552-1.37-1.377m.506-.133c0-.51.192-1.116.84-1.116.614.002.9.685.902 1.242 0 .553-.125 1.217-.842 1.217v-.033c.69 0 .81-.632.81-1.185 0-.55-.282-1.207-.87-1.208-.623 0-.807.578-.808 1.083 0 .675.295 1.31.868 1.31v.032c-.6 0-.9-.66-.9-1.343M29.952 30.196l.007-.007v-1.422c0-.31-.208-.357-.316-.357h-.08V28.3c.17 0 .338.015.507.015.15 0 .3-.015.448-.015v.113h-.055c-.152 0-.323.032-.323.483v1.724c0 .133.004.266.022.384h-.137l-1.867-2.176v1.562c0 .33.062.444.34.444h.062v.114c-.156 0-.31-.015-.467-.015-.163 0-.33.014-.493.014v-.114h.05c.25 0 .327-.18.327-.48V28.75c0-.212-.166-.34-.33-.34H27.6v-.114c.138 0 .28.015.417.015.108 0 .213-.015.322-.015l1.612 1.898" fill="#1A1918"/><path d="M30.163 31.016l-.15-.005-1.84-2.143v1.52c.005.33.053.422.325.426h.078v.147h-.015c-.156 0-.312-.015-.467-.015-.162 0-.33.015-.493.015h-.015v-.147h.066c.24 0 .308-.162.31-.464V28.75c0-.202-.157-.324-.313-.324h-.062v-.147h.015c.138 0 .28.016.417.016.107 0 .21-.015.334-.01l1.594 1.876v-1.394c-.002-.3-.195-.338-.3-.34h-.096v-.147h.017c.17 0 .337.016.506.016.15 0 .297-.015.448-.015h.015v.148h-.07c-.15.004-.304.018-.307.465v1.724c0 .133.003.265.02.38l.004.02h-.017zm-.138-.033h.118c-.015-.114-.02-.24-.02-.366v-1.724c0-.456.184-.497.34-.498h.04v-.08c-.145 0-.287.014-.432.014-.164 0-.326-.015-.49-.016v.08h.064c.11.002.33.053.33.374L29.97 30.2l-.007.008-.01.013-1.614-1.906c-.108 0-.214.015-.323.015-.134 0-.27-.015-.402-.016v.08h.032c.17.002.345.136.345.358v1.597c0 .302-.08.496-.34.497h-.037v.08c.158 0 .32-.015.478-.015.15 0 .3.014.452.015v-.08h-.047c-.284 0-.356-.13-.356-.46V28.78l1.883 2.2zm-.073-.783l.015-.014-.015.014zm-.007-.01l-.004-.005.005.005zM31.1 30.402c-.036.128-.08.228-.08.295 0 .114.153.133.272.133h.04v.114c-.145-.01-.293-.015-.44-.015-.13 0-.26.005-.39.014v-.114h.02c.144 0 .264-.088.316-.247l.582-1.74c.046-.14.112-.33.133-.47.116-.04.26-.117.33-.163.01-.003.018-.007.03-.007.01 0 .017 0 .024.012l.033.094.667 1.982c.043.132.087.272.134.387.044.105.12.15.24.15h.022v.114c-.163-.01-.326-.015-.5-.015-.178 0-.36.005-.544.014v-.114h.04c.083 0 .225-.015.225-.11 0-.05-.032-.15-.073-.273l-.14-.44h-.824l-.116.395zm.53-1.68h-.008l-.337 1.073h.678l-.333-1.073z" fill="#1A1918"/><path d="M33.03 30.96c-.163-.007-.325-.015-.498-.015-.177 0-.36.008-.543.015h-.017v-.147h.055c.084 0 .21-.02.21-.093 0-.043-.033-.147-.074-.268l-.137-.43h-.8l-.112.385c-.036.13-.08.23-.08.29 0 .093.137.116.257.116h.055v.148h-.016c-.144-.007-.292-.015-.437-.015-.13 0-.26.008-.39.015h-.016v-.147h.036c.136 0 .25-.08.302-.235l.58-1.74c.046-.14.11-.33.143-.48.114-.04.26-.117.33-.163.01-.004.02-.008.034-.008.01 0 .03 0 .04.022.01.03.02.063.033.094l.667 1.982c.043.133.086.273.133.386.043.1.11.14.225.14h.037v.15l-.016-.002zm-1.027-.034c.18-.007.356-.014.53-.014.167 0 .325.007.483.014v-.08h-.006c-.123 0-.21-.05-.254-.16-.048-.116-.09-.257-.134-.39l-.667-1.982-.03-.09c-.004-.005-.004-.005-.006-.005h-.008c-.008 0-.012.002-.02.004-.07.047-.216.123-.323.152-.024.143-.09.332-.136.473l-.58 1.74c-.056.163-.182.257-.33.257h-.006v.08c.125-.008.25-.015.375-.015.14 0 .284.007.423.014v-.08h-.024c-.118 0-.283-.014-.288-.15 0-.074.046-.17.08-.3l.016.006-.015-.006.12-.405h.844l.145.452c.04.12.073.223.073.278-.006.116-.158.125-.24.127h-.025v.08zm-.74-1.115l.348-1.104h.02v.016l-.004.002.004-.002v-.016h.01l.343 1.105h-.72zm.044-.032h.634l-.315-1.015-.318 1.015zm.308-1.05l.01-.003-.01.003zM33.945 30.572c0 .152.1.197.217.213.148.01.312.01.48-.008.15-.02.28-.11.346-.205.058-.083.09-.19.113-.273h.106c-.04.215-.09.428-.134.644-.32 0-.64-.015-.957-.015-.32 0-.638.014-.957.014v-.114h.05c.13 0 .273-.02.273-.254v-1.948c0-.198-.14-.217-.27-.217h-.052V28.3c.192 0 .38.015.573.015.186 0 .367-.015.552-.015v.113h-.09c-.14 0-.247.005-.247.206v1.956" fill="#1A1918"/><path d="M35.072 30.96c-.32 0-.64-.015-.957-.015-.32 0-.638.015-.957.015h-.016v-.147h.067c.13-.003.254-.013.256-.237v-1.95c-.002-.183-.126-.196-.257-.198h-.068v-.147h.016c.193 0 .38.016.572.016.185 0 .365-.015.552-.015h.015v.148h-.106c-.14.004-.227-.003-.23.188v1.956c0 .142.09.18.203.196.064.005.13.007.2.007.09 0 .182-.004.275-.014.148-.018.275-.107.338-.197.055-.08.087-.185.11-.268l.002-.012h.137l-.004.02c-.04.216-.09.428-.133.644l-.003.013h-.012zm-.014-.033c.042-.206.09-.407.13-.612h-.076c-.022.083-.054.185-.11.267-.07.098-.203.19-.36.21-.095.01-.19.017-.278.017-.07 0-.138-.005-.204-.01-.118-.013-.232-.066-.232-.228v-1.956c0-.21.128-.22.263-.22h.076v-.082c-.18 0-.355.015-.536.015-.187 0-.37-.015-.556-.016v.08h.035c.128 0 .286.024.286.233v1.95c0 .244-.158.27-.287.27h-.036v.08c.313 0 .626-.015.94-.015.316 0 .63.014.944.015zM35.16 28.19c.22 0 .383.176.383.4 0 .224-.163.398-.382.398-.217 0-.38-.174-.38-.398 0-.224.163-.4.38-.4zm0 .724c.173 0 .303-.152.303-.324 0-.172-.13-.325-.302-.325-.17 0-.3.153-.3.325 0 .172.13.324.3.324zm-.188-.113v-.02c.046-.006.055-.004.055-.034v-.296c0-.042-.004-.056-.054-.054v-.02h.196c.066 0 .127.033.127.106 0 .06-.037.103-.09.12l.063.092c.03.04.063.08.084.094v.013h-.074c-.036 0-.067-.078-.137-.183H35.1v.132c0 .026.01.024.056.03v.02h-.184zm.128-.204h.06c.068 0 .098-.04.098-.105 0-.064-.047-.088-.1-.088H35.1v.194z" fill="#1A1918"/><path d="M12.527 14.916c0-3.546 2.748-6.42 6.137-6.42 3.39 0 6.138 2.874 6.138 6.42 0 3.545-2.748 6.42-6.138 6.42-3.39 0-6.137-2.875-6.137-6.42" fill="#FFF"/><path d="M22.376 14.79c-.002-1.645-.985-3.047-2.37-3.602v7.202c1.385-.556 2.368-1.956 2.37-3.6zm-5.01 3.6v-7.2c-1.383.556-2.364 1.956-2.368 3.6.004 1.642.985 3.042 2.368 3.6zm1.32-9.688c-3.213 0-5.817 2.725-5.818 6.087 0 3.36 2.605 6.085 5.82 6.085 3.213 0 5.818-2.724 5.82-6.086-.002-3.363-2.607-6.087-5.82-6.088zm-.013 12.748c-3.518.017-6.412-2.963-6.412-6.59 0-3.967 2.895-6.71 6.413-6.708h1.648c3.477 0 6.65 2.74 6.65 6.707 0 3.626-3.173 6.59-6.65 6.59h-1.647z" fill="#174977"/></g></svg>