<svg width="40" height="40" viewBox="0 0 40 40" xmlns="http://www.w3.org/2000/svg"><title>ic_card_american_express</title><defs><radialGradient cx="17.538%" cy="17.474%" fx="17.538%" fy="17.474%" r="93.292%" id="a"><stop stop-color="#9DD5F6" offset="0%"/><stop stop-color="#98D3F5" offset="7.11%"/><stop stop-color="#89CEF3" offset="15.75%"/><stop stop-color="#70C6EF" offset="25.16%"/><stop stop-color="#4EBBEA" offset="35.14%"/><stop stop-color="#23ADE3" offset="45.46%"/><stop stop-color="#0DA6E0" offset="50%"/><stop stop-color="#2E77BC" offset="100%"/></radialGradient></defs><g fill="none" fill-rule="evenodd"><path d="M0 0h40v40H0z"/><path d="M33.053 0H.083v33.333h32.97v-11c.128-.19.198-.437.198-.73 0-.343-.07-.555-.197-.73" fill="url(#a)" transform="translate(3.333 3.333)"/><path d="M6.386 17.762l-.632-1.555-.632 1.555h1.264zm13.976-.625c-.128.083-.28.083-.456.083h-1.134v-.872h1.146c.164 0 .327.012.444.07.117.06.2.178.2.343-.013.177-.083.32-.2.377zm8.035.625l-.643-1.555-.643 1.555h1.287zm-14.97 1.684h-.948v-3.062l-1.346 3.062h-.82L8.97 16.384v3.062H7.076l-.35-.872h-1.93l-.364.872H3.427l1.66-3.91h1.38l1.58 3.698v-3.698h1.508l1.217 2.65 1.11-2.65h1.545v3.91zm3.777 0h-3.1v-3.91h3.1v.812H15.04v.707h2.118v.8H15.04v.778h2.164v.813zm4.375-2.862c0 .624-.41.942-.656 1.036.198.083.374.212.456.33.128.19.152.365.152.72v.764h-.936v-.494c0-.236.024-.578-.152-.766-.14-.14-.34-.165-.678-.165h-.994v1.424h-.924v-3.91h2.128c.468 0 .82.012 1.123.188.303.19.48.436.48.872zm1.472 2.862h-.947v-3.91h.947v3.91zm10.97 0h-1.31l-1.753-2.933v2.933h-1.884l-.363-.872h-1.93l-.35.872h-1.088c-.456 0-1.018-.106-1.345-.436-.328-.33-.492-.777-.492-1.496 0-.577.106-1.107.503-1.53.305-.307.773-.46 1.405-.46h.9v.836h-.877c-.34 0-.526.047-.713.236-.164.165-.27.47-.27.883 0 .423.083.718.258.918.14.153.398.2.643.2h.42l1.31-3.074h1.393l1.566 3.698v-3.698h1.416l1.625 2.72v-2.72h.948v3.922h-.012zm-30.607.766h1.58l.36-.872h.797l.35.872h3.112v-.66l.28.67h1.626l.28-.67v.67h7.744V18.8h.152c.105 0 .14.012.14.19v1.235h4v-.33c.327.177.83.33 1.485.33h1.686l.362-.87h.795l.35.87h3.253V19.4l.49.823h2.597v-5.465H32.28v.648l-.362-.648h-2.643v.648l-.328-.648H25.38c-.597 0-1.123.083-1.544.318v-.318h-2.468v.318c-.27-.235-.643-.318-1.053-.318H11.32l-.607 1.402-.62-1.402h-2.83v.648l-.304-.648H4.537l-1.123 2.59v2.864zM36.386 23.086H34.7c-.162 0-.28.01-.373.07-.093.06-.14.153-.14.283 0 .152.082.246.2.293.092.036.197.048.36.048l.504.012c.504.012.843.106 1.054.318.035.036.058.06.082.095v-1.12zm0 2.58c-.223.33-.667.494-1.264.494h-1.79v-.836h1.78c.174 0 .303-.024.373-.095.07-.06.105-.154.105-.26 0-.118-.046-.2-.117-.26-.07-.058-.163-.08-.327-.08-.866-.037-1.953.022-1.953-1.215 0-.565.362-1.166 1.333-1.166h1.848v-.778h-1.696c-.515 0-.89.13-1.158.318v-.318h-2.538c-.41 0-.877.106-1.11.318v-.318h-4.527v.318c-.363-.26-.97-.318-1.252-.318H21.1v.318c-.282-.283-.925-.318-1.31-.318h-3.346l-.76.836-.714-.836H9.976v5.453h4.9l.784-.848.75.848h3.017v-1.283h.292c.397.01.876-.012 1.286-.19v1.473h2.49V25.5h.118c.152 0 .163.012.163.165v1.26h7.568c.48 0 .982-.13 1.263-.353v.353h2.42c.504 0 .983-.07 1.358-.247v-1.013zm-3.696-1.567c.175.187.28.423.28.823 0 .836-.526 1.237-1.45 1.237h-1.8v-.836h1.8c.176 0 .304-.024.374-.095.06-.06.106-.154.106-.26 0-.118-.047-.2-.117-.26-.07-.058-.164-.08-.328-.08-.865-.037-1.953.022-1.953-1.215 0-.565.35-1.166 1.322-1.166h1.86v.836h-1.697c-.163 0-.28.01-.374.07-.105.06-.14.153-.14.283 0 .152.082.246.2.293.092.036.197.048.36.048l.504.012c.503.012.842.095 1.053.307zm-8.363-.237c-.13.07-.28.082-.456.082H22.75v-.87h1.146c.164 0 .328 0 .445.07.116.058.186.188.186.353 0 .153-.082.294-.2.365zm.562.483c.21.082.373.212.455.33.128.188.152.365.152.718v.778h-.936v-.483c0-.237.024-.578-.15-.767-.14-.14-.34-.177-.68-.177h-.982v1.426h-.935v-3.91h2.14c.468 0 .807.023 1.11.188.293.176.48.424.48.87 0 .614-.41.932-.654 1.026zm1.168-2.085h3.088v.814H26.97v.707h2.117v.802H26.97v.777h2.176v.812h-3.088v-3.91zM19.8 24.064H18.61v-.99h1.205c.34 0 .56.142.56.484.013.33-.21.506-.572.506zm-2.116 1.743l-1.427-1.59 1.427-1.543v3.133zm-3.673-.46h-2.28v-.776h2.036v-.8H11.73v-.708h2.328l1.018 1.143-1.065 1.142zm7.37-1.8c0 1.083-.807 1.306-1.614 1.306h-1.158v1.308h-1.8l-1.148-1.296-1.18 1.296h-3.673v-3.91h3.73l1.135 1.283 1.18-1.284h2.96c.737.01 1.568.21 1.568 1.295z" fill="#FFF"/></g></svg>