<svg width="40" height="40" viewBox="0 0 40 40" xmlns="http://www.w3.org/2000/svg"><title>ic_card_elo</title><g fill="none" fill-rule="evenodd"><path d="M0 0h40v40H0z"/><path d="M19.966 3.333c9.17 0 16.605 7.435 16.605 16.606 0 9.17-7.433 16.604-16.604 16.604-9.17 0-16.606-7.434-16.606-16.605 0-9.172 7.435-16.607 16.606-16.607" fill="#0E0E11"/><path d="M19.966 3.333c9.17 0 16.605 7.435 16.605 16.606 0 9.17-7.433 16.604-16.604 16.604-9.17 0-16.606-7.434-16.606-16.605 0-9.172 7.435-16.607 16.606-16.607z" stroke="#1B1A18" stroke-width=".833"/><path d="M15.02 18.662l-5.096 2.196c-.008-.088-.013-.176-.013-.266 0-1.613 1.31-2.92 2.92-2.92.873 0 1.656.383 2.19.99zm-2.19-3.173c2.406 0 4.423 1.663 4.962 3.903l-2.057.9v-.005l-2.104.924-5.047 2.208c-.54-.81-.855-1.782-.855-2.828 0-2.82 2.285-5.103 5.103-5.103zM16.397 24.242c-1.827 1.734-4.244 1.904-6.368.615l1.2-1.825c1.207.723 2.42.606 3.64-.352l1.527 1.562M18.475 22.98l-.013-9.65h1.828v9.388c0 .09.01.17.13.216l1.59.618-.717 1.863-1.863-.788c-.706-.3-.954-.732-.955-1.648" fill="#FFF"/><path d="M25.36 22.817c-.687-.533-1.128-1.365-1.128-2.3 0-.832.35-1.58.908-2.112l-1.18-1.914c-1.188.942-1.95 2.395-1.95 4.027 0 1.76.885 3.31 2.234 4.236l1.115-1.936" fill="#2091C3"/><path d="M26.16 17.776c.307-.11.64-.172.985-.172 1.247 0 2.31.784 2.725 1.886l2.263-.19c-.546-2.248-2.572-3.918-4.988-3.918-.683 0-1.334.135-1.93.377l.944 2.016" fill="#FAEC32"/><path d="M30.053 20.658c-.073 1.543-1.347 2.77-2.908 2.77-.245 0-.483-.03-.71-.086l-.887 2.055c.502.164 1.04.254 1.597.254 2.765 0 5.018-2.184 5.13-4.922l-2.222-.07" fill="#D0352A"/></g></svg>