<svg width="40" height="40" viewBox="0 0 40 40" xmlns="http://www.w3.org/2000/svg"><title>ic_card_mastercard</title><g fill="none" fill-rule="evenodd"><path d="M0 0h40v40H0V0z"/><path d="M19.984 27.408c1.75 1.597 4.102 2.566 6.66 2.566 5.492 0 9.938-4.435 9.938-9.89 0-5.472-4.446-9.907-9.938-9.907-2.558 0-4.91.97-6.66 2.566-2.008 1.818-3.28 4.435-3.28 7.34 0 2.907 1.272 5.524 3.28 7.325z" fill="#FCB131"/><path d="M35.26 25.59c0-.17.138-.306.31-.306.188 0 .326.136.326.306 0 .187-.138.323-.327.323-.172 0-.31-.136-.31-.323zm.31.255c.137 0 .257-.12.257-.255 0-.136-.12-.238-.258-.238-.12 0-.24.102-.24.238s.12.255.24.255zm-.035-.102h-.07v-.29h.122c.017 0 .05 0 .068.018.035.018.035.035.035.07 0 .033-.017.067-.052.067l.07.136h-.087l-.033-.12h-.052v.12-.17h.068c.017 0 .017-.017.017-.034 0-.018 0-.018-.016-.035h-.07V25.743z" fill="#FCB131"/><path d="M23.194 19.03c-.034-.356-.103-.696-.172-1.053h-6.076c.07-.357.17-.697.274-1.037h5.51c-.12-.357-.257-.713-.412-1.053H17.65c.17-.357.36-.714.566-1.054h3.52c-.224-.357-.482-.714-.756-1.037h-2.008c.308-.373.652-.73 1.012-1.053-1.768-1.58-4.102-2.566-6.677-2.566-5.475 0-9.938 4.435-9.938 9.907 0 5.455 4.462 9.89 9.937 9.89 2.575 0 4.91-.97 6.677-2.566.36-.323.687-.663.996-1.037h-2.008c-.275-.34-.515-.678-.756-1.052h3.52c.222-.34.41-.68.583-1.054h-4.67c-.154-.34-.31-.68-.43-1.037h5.51c.12-.34.207-.696.292-1.053.07-.34.138-.697.172-1.054.035-.34.052-.68.052-1.037 0-.356-.018-.713-.052-1.053z" fill="#ED1C2E"/><path d="M35.26 22.06c0-.17.138-.305.31-.305.188 0 .326.136.326.305 0 .188-.138.323-.327.323-.172 0-.31-.135-.31-.323zm.31.256c.137 0 .257-.12.257-.255s-.12-.237-.258-.237c-.12 0-.24.102-.24.238s.12.256.24.256zm-.035-.102h-.07v-.29h.122c.017 0 .05 0 .068.018.035.017.035.034.035.068s-.017.068-.052.068l.07.136h-.087l-.033-.12h-.052v.12-.17h.068c.017 0 .017-.018.017-.034 0-.018 0-.018-.016-.034h-.07V22.214z" fill="#FFF"/><path d="M16.602 22.94c-.326.084-.566.135-.806.135-.515 0-.824-.323-.824-.9 0-.12.017-.24.034-.375l.07-.39.05-.323.464-2.787h1.03l-.12.612h.652l-.155 1.02h-.652l-.275 1.665c-.017.085-.017.136-.017.17 0 .22.103.305.36.305.12 0 .224-.016.327-.034l-.138.9zm3.33-.035c-.377.102-.72.153-1.098.153-1.167 0-1.837-.612-1.837-1.82 0-1.41.79-2.428 1.888-2.428.876 0 1.442.577 1.442 1.478 0 .306-.034.595-.12 1.003h-2.145c-.018.07-.018.103-.018.137 0 .476.327.713.944.713.395 0 .738-.084 1.116-.254l-.17 1.02zm-.635-2.43v-.204c0-.34-.19-.526-.515-.526-.343 0-.583.255-.686.73h1.2zM8.363 22.99H7.3l.617-3.857-1.39 3.857H5.79l-.087-3.84-.652 3.84H4.004l.84-5.013h1.563l.035 3.093 1.048-3.093h1.716l-.84 5.013zm2.592-1.82c-.103-.015-.137-.015-.206-.015-.62 0-.928.237-.928.61 0 .256.155.426.395.426.515 0 .72-.424.738-1.02zm.86 1.82h-.928l.017-.425c-.24.323-.567.493-1.133.493-.514 0-.96-.46-.96-1.122 0-.186.034-.356.086-.527.17-.63.806-1.02 1.785-1.037.12 0 .31 0 .48.017.036-.136.036-.187.036-.272 0-.272-.223-.357-.72-.357-.31 0-.654.052-.894.137l-.154.034-.07.018.156-.917c.497-.152.858-.22 1.253-.22.927 0 1.424.425 1.424 1.206 0 .204.018.357-.05.8l-.24 1.46-.035.256-.017.204-.017.136-.016.118zm13.3-4.044c.31 0 .585.084.962.27l.19-1.086c-.104-.05-.138-.05-.275-.102l-.43-.12c-.137-.033-.308-.05-.497-.05-.532 0-.84.017-1.167.204-.172.12-.395.272-.635.544l-.138-.034-1.098.764.05-.425h-1.132l-.67 4.08h1.083l.394-2.192s.155-.306.223-.408c.206-.255.378-.255.6-.255h.087c-.034.238-.05.493-.05.782 0 1.325.754 2.158 1.92 2.158.293 0 .55-.034.945-.136l.19-1.156c-.344.186-.653.27-.91.27-.636 0-1.013-.474-1.013-1.222 0-1.105.565-1.886 1.372-1.886zm9.116-.97l-.24 1.428c-.257-.39-.566-.577-.978-.577-.567 0-1.098.323-1.425.934v-.016l-.686-.408.07-.425h-1.15l-.653 4.08h1.065l.36-2.192s.274-.306.343-.408c.172-.204.343-.238.48-.255-.12.34-.188.748-.188 1.206 0 1.02.532 1.7 1.322 1.7.393 0 .702-.135.994-.458l-.05.408h1.01l.825-5.013h-1.1zm-1.32 4.045c-.36 0-.55-.27-.55-.797 0-.8.343-1.377.84-1.377.378 0 .567.29.567.8 0 .815-.343 1.375-.858 1.375zm-4.962-.85c-.103-.015-.137-.015-.206-.015-.618 0-.926.237-.926.61 0 .256.154.426.394.426.515 0 .72-.424.738-1.02zm.86 1.82h-.945l.034-.425c-.24.323-.566.493-1.133.493-.532 0-.996-.442-.996-1.122 0-.968.74-1.563 1.906-1.563.12 0 .31 0 .463.017.035-.136.052-.187.052-.272 0-.272-.224-.357-.74-.357-.29 0-.65.052-.892.137l-.137.034-.068.018.155-.917c.498-.152.858-.22 1.253-.22.927 0 1.407.425 1.407 1.207 0 .203.035.357-.05.798l-.224 1.462-.035.255-.034.204-.017.136v.118zM14.06 19.778c.206 0 .498.017.807.068l.153-.95c-.31-.035-.72-.086-.96-.086-1.203 0-1.597.645-1.597 1.393 0 .493.223.85.807 1.122.43.204.497.237.497.425 0 .254-.223.407-.635.407-.326 0-.635-.05-.978-.17l-.12.935.017.017.206.033c.068.017.154.034.275.05.257.018.48.035.618.035 1.2 0 1.7-.46 1.7-1.36 0-.56-.276-.9-.808-1.138-.463-.204-.515-.238-.515-.425s.206-.357.532-.357z" fill="#003473"/><path d="M26.558 17.807l-.19 1.088c-.376-.187-.65-.272-.96-.272-.807 0-1.373.782-1.373 1.886 0 .764.377 1.223 1.012 1.223.258 0 .567-.085.91-.255l-.19 1.138c-.393.102-.65.153-.943.153-1.167 0-1.888-.833-1.888-2.176 0-1.784.996-3.042 2.42-3.042.19 0 .36.017.498.05l.43.103c.137.05.17.068.274.102zm-3.467.748h-.102c-.36 0-.567.17-.893.662l.103-.628h-.978l-.67 4.077h1.082c.395-2.498.498-2.923 1.013-2.923h.068c.103-.493.24-.85.412-1.172l-.034-.017zm-6.213 4.06c-.292.103-.532.137-.772.137-.55 0-.86-.306-.86-.9 0-.102.02-.24.036-.357l.07-.408.05-.323.464-2.787h1.064l-.12.612h.55l-.138 1h-.55l-.29 1.7c-.018.07-.018.12-.018.17 0 .205.103.29.36.29.12 0 .224 0 .292-.034l-.137.9zM12.74 19.88c0 .51.24.867.807 1.14.446.203.515.27.515.44 0 .256-.19.374-.618.374-.326 0-.618-.05-.96-.152l-.156.934.052.017.19.034c.067.017.153.034.29.034.24.035.447.035.584.035 1.133 0 1.665-.425 1.665-1.36 0-.56-.224-.883-.756-1.138-.463-.204-.515-.255-.515-.442 0-.22.188-.322.53-.322.207 0 .5.017.773.05l.155-.934c-.275-.052-.704-.086-.944-.086-1.202 0-1.63.63-1.614 1.376zm22.04 2.787h-1.013l.052-.39c-.293.305-.602.44-.997.44-.79 0-1.304-.662-1.304-1.68 0-1.36.805-2.516 1.75-2.516.43 0 .737.188 1.03.562l.24-1.428h1.064l-.824 5.013zm-1.58-.95c.5 0 .842-.58.842-1.378 0-.528-.19-.8-.566-.8-.48 0-.842.56-.842 1.36 0 .544.19.816.567.816zm-13.027.865c-.378.12-.72.17-1.116.17-1.202 0-1.82-.63-1.82-1.835 0-1.394.79-2.43 1.87-2.43.894 0 1.46.578 1.46 1.478 0 .306-.034.595-.137 1.02h-2.128c-.018.05-.018.085-.018.12 0 .475.327.713.944.713.395 0 .738-.068 1.116-.255l-.17 1.02zm-.6-2.43v-.204c0-.34-.19-.527-.516-.527-.343 0-.584.256-.687.732h1.202zM8.637 22.667H7.574l.618-3.857-1.39 3.857h-.74l-.085-3.823-.652 3.823H4.33l.84-5.013h1.546l.05 3.11 1.03-3.11H9.48l-.842 5.013zm2.66-1.818c-.102 0-.154-.018-.24-.018-.6 0-.91.22-.91.63 0 .254.138.406.378.406.446 0 .755-.407.773-1.02zm.79 1.817h-.892l.017-.425c-.275.34-.635.493-1.133.493-.584 0-.98-.442-.98-1.104 0-1.002.688-1.58 1.89-1.58.12 0 .274.017.446.034.034-.136.034-.187.034-.255 0-.272-.19-.374-.687-.374-.308 0-.652.034-.892.102l-.154.05-.103.018.155-.918c.532-.153.892-.204 1.287-.204.927 0 1.425.408 1.425 1.19 0 .204-.017.356-.086.815l-.24 1.444-.035.255-.018.203-.017.153-.017.1zm16.204-1.818c-.12 0-.172-.018-.24-.018-.618 0-.927.22-.927.63 0 .254.154.406.394.406.428 0 .755-.407.772-1.02zm.79 1.817h-.893l.016-.425c-.275.34-.635.493-1.133.493-.584 0-.978-.442-.978-1.104 0-1.002.686-1.58 1.888-1.58.12 0 .274.017.43.034.033-.136.05-.187.05-.255 0-.272-.188-.374-.686-.374-.31 0-.67.034-.91.102l-.137.05-.103.018.154-.918c.534-.153.894-.204 1.29-.204.926 0 1.406.408 1.406 1.19 0 .204 0 .356-.086.815l-.223 1.444-.034.255-.035.203-.017.153v.1zm2.883-4.112h-.103c-.36 0-.566.17-.893.662l.103-.628h-.98l-.65 4.077h1.063c.395-2.498.498-2.923 1.013-2.923h.068c.103-.493.24-.85.412-1.172l-.035-.017z" fill="#FFF"/></g></svg>