<svg width="24" height="21" viewBox="0 0 24 21" xmlns="http://www.w3.org/2000/svg"><title>ic_delivery</title><g fill="none" fill-rule="evenodd"><path d="M0-2h24v24H0z"/><path d="M19.44 11.03L15.41 7H11v2h3.59l2 2H5c-2.8 0-5 2.2-5 5s2.2 5 5 5c2.46 0 4.45-1.69 4.9-4h1.65l2.77-2.77c-.21.54-.32 1.14-.32 1.77 0 2.8 2.2 5 5 5s5-2.2 5-5c0-2.65-1.97-4.77-4.56-4.97zM7.82 17C7.4 18.15 6.28 19 5 19c-1.63 0-3-1.37-3-3s1.37-3 3-3c1.28 0 2.4.85 2.82 2H5v2h2.82zM19 19c-1.66 0-3-1.34-3-3s1.34-3 3-3 3 1.34 3 3-1.34 3-3 3z" fill="#FFF"/><path d="M11.15 3.954c1.04-.358 1.598-1.502 1.24-2.542-.358-1.04-1.502-1.598-2.542-1.24-1.04.358-1.598 1.502-1.24 2.542.358 1.04 1.502 1.598 2.542 1.24zM9.822 7.16l1.017.497c1.65.806 3.52 1.01 5.505.325l-1.652-1.89c-1.418.488-1.748.31-2.892-.247L9.387 4.667c-.603-.215-1.14-.24-1.708-.046-.567.196-.975.548-1.128 1.024l-1.736 3.56c-.248.507-.275 1.045-.112 1.518.196.567.547.975 1.023 1.128l3.938 1.606.976 2.837 1.89-.65-1.367-3.973-2.83-1.458 1.49-3.05z" fill="#FFF"/></g></svg>