<svg width="42" height="60" viewBox="0 0 42 60" xmlns="http://www.w3.org/2000/svg" xmlns:xlink="http://www.w3.org/1999/xlink"><title>ic_gas_sad</title><defs><path d="M50.776 38.372l1.49-1.504-.748-.755-1.492 1.504-1.49-1.504-.75.755 1.49 1.504-1.49 1.504.75.756 1.49-1.504 1.492 1.504.75-.756-1.492-1.504zm-27.752 0l1.492-1.504-.75-.755-1.49 1.504-1.493-1.504-.75.755 1.493 1.504-1.492 1.504.75.756 1.49-1.504 1.493 1.504.75-.756-1.493-1.504zm9.627 22.423h6.716l-.207.688h-6.3l-.21-.688zm-8.522-.418c-1.02-.274-1.99-.676-2.888-1.188v2.3c.046-.005.09-.007.138-.007h2.417l.333-1.106zm23.76-.005c1.104-.297 2.147-.745 3.106-1.32v2.438c-.048-.005-.097-.007-.146-.007h-2.626l-.334-1.11zm-28.004-2.08C16.917 56.036 15 52.462 15 48.438V25.27c0-6.126 4.446-11.212 10.28-12.186V9.392c-.974-.158-1.716-1.005-1.716-2.026v-.314C23.564 5.92 24.48 5 25.61 5h21.005c1.13 0 2.047.92 2.047 2.052v.314c0 1.1-.86 1.996-1.942 2.05v3.668C52.553 14.058 57 19.144 57 25.27V48.44c0 3.917-1.816 7.407-4.65 9.67v4.997h-.01v.397c0 .827-.668 1.498-1.492 1.498h-29.47c-.825 0-1.494-.67-1.494-1.498v-.52-4.69zM44.37 12.916H32.035V9.42H44.37v3.496zm-13.183 38.09c0-2.49 2.014-4.51 4.497-4.51s4.496 2.02 4.496 4.51h-8.993z" id="a"/></defs><g transform="translate(-15 -5)" fill="none" fill-rule="evenodd"><path d="M0 0h72v72H0z"/><use fill="#20A3A3" xlink:href="#a"/></g></svg>