<svg width="59" height="76" viewBox="0 0 59 76" xmlns="http://www.w3.org/2000/svg"><title>ic_gas_dead</title><g fill="none" fill-rule="evenodd"><path d="M-21-12H79V88H-21z"/><path d="M50.278 42.034l1.896-1.896-.948-.948-1.896 1.896-1.896-1.896-.948.948 1.896 1.896-1.896 1.896.948.948 1.896-1.896 1.896 1.896.948-.948-1.896-1.896zm-35.123 0l1.897-1.896-.948-.948-1.897 1.896-1.896-1.896-.947.948 1.896 1.896-1.897 1.896.948.948 1.897-1.896 1.897 1.896.948-.948-1.897-1.896zM27.34 70.277h8.498l-.262.866h-7.974l-.262-.866zm-10.787-.527c-1.292-.345-2.518-.85-3.655-1.496v2.897c.057-.004.115-.007.174-.007h3.06l.42-1.393zm30.07-.006c1.398-.375 2.718-.94 3.93-1.663v3.072c-.06-.006-.12-.01-.183-.01h-3.323l-.424-1.398zm-35.44-2.62C7.425 64.284 5 59.78 5 54.714v-29.18c0-7.72 5.627-14.124 13.01-15.352v-4.65c-1.232-.2-2.17-1.266-2.17-2.552v-.395C15.84 1.158 16.997 0 18.43 0H45.01c1.43 0 2.59 1.158 2.59 2.585v.395c0 1.384-1.088 2.514-2.456 2.583v4.62c7.382 1.227 13.01 7.632 13.01 15.35v29.18c0 4.933-2.3 9.33-5.885 12.18v6.293h-.01v.5c0 1.042-.847 1.887-1.89 1.887H13.072c-1.044 0-1.89-.845-1.89-1.887v-.656-5.906zM42.172 9.97H26.558V5.566H42.17V9.97zM25.486 57.947c0-3.138 2.548-5.68 5.69-5.68 3.144 0 5.692 2.542 5.692 5.68H25.486z" fill-opacity=".12" fill="#000"/><path d="M45.278 42.034l1.896-1.896-.948-.948-1.896 1.896-1.896-1.896-.948.948 1.896 1.896-1.896 1.896.948.948 1.896-1.896 1.896 1.896.948-.948-1.896-1.896zm-35.123 0l1.897-1.896-.948-.948-1.897 1.896L7.31 39.19l-.947.948 1.896 1.896-1.897 1.896.948.948 1.897-1.896 1.897 1.896.948-.948-1.897-1.896zM22.34 70.277h8.498l-.262.866h-7.974l-.262-.866zm-10.787-.527c-1.292-.345-2.518-.85-3.655-1.496v2.897c.057-.004.115-.007.174-.007h3.06l.42-1.393zm30.07-.006c1.398-.375 2.718-.94 3.93-1.663v3.072c-.06-.006-.12-.01-.183-.01h-3.323l-.424-1.398zm-35.44-2.62C2.425 64.284 0 59.78 0 54.714v-29.18c0-7.72 5.627-14.124 13.01-15.352v-4.65c-1.232-.2-2.17-1.266-2.17-2.552v-.395C10.84 1.158 11.997 0 13.43 0H40.01c1.43 0 2.59 1.158 2.59 2.585v.395c0 1.384-1.088 2.514-2.456 2.583v4.62c7.382 1.227 13.01 7.632 13.01 15.35v29.18c0 4.933-2.3 9.33-5.885 12.18v6.293h-.01v.5c0 1.042-.847 1.887-1.89 1.887H8.072c-1.044 0-1.89-.845-1.89-1.887v-.656-5.906zM37.172 9.97H21.558V5.566H37.17V9.97zM20.486 57.947c0-3.138 2.548-5.68 5.69-5.68 3.144 0 5.692 2.542 5.692 5.68H20.486z" fill="#FFF"/></g></svg>