<svg width="12" height="20" viewBox="0 0 12 20" xmlns="http://www.w3.org/2000/svg"><title>ic_gas_dead</title><g fill="none" fill-rule="evenodd"><path d="M-6-2h24v24H-6z"/><path d="M1.395 17.764C.548 17.012 0 15.82 0 14.48V6.756C0 4.715 1.27 3.02 2.937 2.695v-1.23c-.278-.054-.49-.336-.49-.676V.683c0-.378.262-.684.585-.684h6c.324 0 .586.306.586.684V.79c0 .365-.246.664-.555.682v1.223C10.73 3.02 12 4.715 12 6.757v7.722c0 1.305-.52 2.468-1.33 3.223V19.5c0 .276-.192.5-.428.5h-8.42c-.235 0-.427-.224-.427-.5v-.173-1.563z" fill="#FFF"/></g></svg>