<svg width="39" height="40" viewBox="0 0 39 40" xmlns="http://www.w3.org/2000/svg" xmlns:xlink="http://www.w3.org/1999/xlink"><title>ic_lupa</title><defs><path d="M10.763.977C4.817.977 0 5.905 0 11.987S4.817 23 10.763 23c5.944 0 10.763-4.93 10.763-11.012 0-6.083-4.82-11.01-10.763-11.01z" id="a"/><path d="M27.268 14.588h-1.71l-.592.604c2.097 2.502 3.373 5.747 3.373 9.302 0 7.903-6.262 14.308-13.986 14.308C6.63 38.802.368 32.397.368 24.494c0-7.902 6.262-14.308 13.986-14.308 3.475 0 6.644 1.303 9.09 3.447l.594-.603v-1.744L34.792.3 38 3.582 27.268 14.588zm-12.914 0c-5.35 0-9.682 4.434-9.682 9.906 0 5.47 4.333 9.906 9.682 9.906 5.347 0 9.682-4.436 9.682-9.906 0-5.472-4.335-9.906-9.682-9.906z" id="d"/><filter x="-50%" y="-50%" width="200%" height="200%" filterUnits="objectBoundingBox" id="c"><feOffset dx="-1" dy="-1" in="SourceAlpha" result="shadowOffsetOuter1"/><feComposite in="shadowOffsetOuter1" in2="SourceAlpha" operator="out" result="shadowOffsetOuter1"/><feColorMatrix values="0 0 0 0 0.0112449296 0 0 0 0 0.712478741 0 0 0 0 0.297770573 0 0 0 1 0" in="shadowOffsetOuter1"/></filter></defs><g fill="none" fill-rule="evenodd"><path d="M-5-6h50v50H-5z"/><g transform="translate(4.842 3.9)"><mask id="b" fill="#fff"><use xlink:href="#a"/></mask><use fill-opacity=".54" fill="#FFF" transform="matrix(1 0 0 -1 0 23.977)" xlink:href="#a"/><path fill-opacity=".053" fill="#848484" mask="url(#b)" d="M12.458-3.868h1.765v26.184h-1.765zM7.3-5.158h1.764v26.184H7.3z"/></g><g transform="matrix(1 0 0 -1 1 39.102)"><use fill="#000" filter="url(#c)" xlink:href="#d"/><use fill-opacity=".99" fill="#12CD5F" xlink:href="#d"/></g></g></svg>