<svg width="82" height="71" viewBox="0 0 82 71" xmlns="http://www.w3.org/2000/svg"><title>ic_ticket_black</title><g fill="none" fill-rule="evenodd"><path d="M17.66 49.116v12.947c0 3.592 2.895 6.473 6.434 6.473h51.472c3.54 0 6.402-2.88 6.402-6.474V49.117c-3.54 0-6.402-2.913-6.402-6.473S78.43 36.17 82 36.17V23.223c0-3.56-2.895-6.473-6.434-6.473H24.094c-3.54 0-6.434 2.913-6.434 6.473V36.17c3.538 0 6.434 2.913 6.434 6.473s-2.896 6.473-6.434 6.473zm18.87-32.363l6.702 5.357-3.127 5.803 5.36 4.465-2.68 4.91 7.15 5.357-4.47 6.25 6.703 6.697-2.68-7.143 4.914-5.805.894-1.785-6.702-4.91 4.02-4.465-8.04-5.357 5.36-3.572-2.68-.893 3.127-2.232-4.467-2.677H36.53z" fill-opacity=".12" fill="#443E3E"/><path d="M11.792 54.962l5.472 11.734c1.518 3.256 5.36 4.643 8.567 3.147L72.48 48.09c3.208-1.495 4.585-5.316 3.067-8.572l-5.472-11.733c-3.207 1.495-7.033.065-8.537-3.162-1.505-3.226-.14-7.076 3.095-8.585l-5.47-11.734c-1.506-3.227-5.36-4.643-8.568-3.147L3.945 22.91C.738 24.405-.655 28.27.85 31.496L6.32 43.23c3.208-1.497 7.063-.08 8.568 3.147 1.505 3.226.112 7.09-3.096 8.585zm3.425-37.306l8.34 2.023-.383 6.58 6.746 1.78-.355 5.584 8.744 1.834-1.41 7.553 8.905 3.237-5.45-5.34 2.003-7.337.055-1.996-8.15-1.618 1.76-5.746-9.555-1.456 3.35-5.503-2.807.325 1.893-3.345-5.182-.54-8.503 3.966z" fill="#6F6F6F"/><path d="M-2-6h84v84H-2z"/></g></svg>