<svg width="20" height="16" viewBox="0 0 20 16" xmlns="http://www.w3.org/2000/svg" xmlns:xlink="http://www.w3.org/1999/xlink"><title>ic_ticket_confirmation</title><defs><path id="a" d="M0 0h24v24H0z"/></defs><g transform="translate(-2 -4)" fill="none" fill-rule="evenodd"><mask id="b" fill="#fff"><use xlink:href="#a"/></mask><path d="M22 10V6c0-1.11-.9-2-2-2H4c-1.1 0-1.99.89-1.99 2v4c1.1 0 1.99.9 1.99 2s-.89 2-2 2v4c0 1.1.9 2 2 2h16c1.1 0 2-.9 2-2v-4c-1.1 0-2-.9-2-2s.9-2 2-2zm-9 7.5h-2v-2h2v2zm0-4.5h-2v-2h2v2zm0-4.5h-2v-2h2v2z" fill-opacity=".54" fill="#000" mask="url(#b)" transform="rotate(180 12 12)"/></g></svg>