<svg width="98" height="81" viewBox="0 0 98 81" xmlns="http://www.w3.org/2000/svg"><title>ic_ticket</title><g fill="none" fill-rule="evenodd"><path d="M-2-10H98V90H-2z"/><path d="M26 59.25v14.5c0 4.024 3.24 7.25 7.2 7.25h57.6c3.96 0 7.164-3.226 7.164-7.25v-14.5c-3.96 0-7.164-3.263-7.164-7.25s3.204-7.25 7.2-7.25v-14.5c0-3.987-3.24-7.25-7.2-7.25H33.2c-3.96 0-7.2 3.263-7.2 7.25v14.5c3.96 0 7.2 3.263 7.2 7.25s-3.24 7.25-7.2 7.25zm32.4-27.188h7.2v7.25h-7.2v-7.25zm0 16.313h7.2v7.25h-7.2v-7.25zm0 16.313h7.2v7.25h-7.2v-7.25z" fill-opacity=".12" fill="#000"/><path d="M13.32 61.785l6.128 13.14c1.7 3.648 6 5.203 9.59 3.53L81.24 54.11c3.59-1.674 5.13-5.952 3.43-9.6l-6.13-13.14c-3.588 1.673-7.87.07-9.555-3.543-1.686-3.615-.16-7.926 3.46-9.615L66.32 5.075c-1.685-3.615-6-5.203-9.59-3.53L4.526 25.89c-3.59 1.674-5.146 6-3.46 9.614L7.19 48.644c3.59-1.674 7.904-.086 9.59 3.527 1.685 3.615.127 7.94-3.462 9.615zm17.874-38.333l6.526-3.043 3.064 6.57-6.526 3.043-3.064-6.57zm6.894 14.784l6.526-3.043 3.064 6.57-6.526 3.044-3.064-6.57zm6.894 14.784l6.526-3.043 3.064 6.57-6.526 3.044-3.064-6.57z" fill="#FFF"/></g></svg>