<svg width="92" height="80" viewBox="0 0 92 80" xmlns="http://www.w3.org/2000/svg"><title>ic_ticket_broken</title><g fill="none" fill-rule="evenodd"><path d="M20 55.25v14.5c0 4.024 3.24 7.25 7.2 7.25h57.6c3.96 0 7.164-3.226 7.164-7.25v-14.5c-3.96 0-7.164-3.263-7.164-7.25s3.204-7.25 7.2-7.25v-14.5c0-3.987-3.24-7.25-7.2-7.25H27.2c-3.96 0-7.2 3.263-7.2 7.25v14.5c3.96 0 7.2 3.263 7.2 7.25s-3.24 7.25-7.2 7.25zm21.117-36.247l7.5 6-3.5 6.5 6 5-3 5.5 8 6-5 7 7.5 7.5-3-8 5.5-6.5 1-2-7.5-5.5 4.5-5-9-6 6-4-3-1 3.5-2.5-5-3h-10.5z" fill-opacity=".12" fill="#443E3E"/><path d="M13.437 61.785l6.128 13.14c1.7 3.648 6 5.203 9.59 3.53L81.357 54.11c3.59-1.674 5.13-5.952 3.428-9.6l-6.128-13.14c-3.59 1.673-7.87.07-9.556-3.543-1.686-3.615-.16-7.926 3.46-9.615l-6.127-13.14c-1.685-3.615-6-5.203-9.59-3.53L4.643 25.89c-3.59 1.674-5.146 6-3.46 9.614l6.127 13.142c3.588-1.674 7.903-.086 9.588 3.527 1.686 3.615.128 7.94-3.46 9.615zm3.82-41.776l9.333 2.268-.425 7.37 7.55 1.996-.394 6.252 9.787 2.057-1.573 8.457 9.967 3.628-6.1-5.983 2.24-8.215.06-2.235-9.122-1.815 1.965-6.434-10.692-1.634 3.748-6.16-3.14.36 2.114-3.744-5.8-.606-9.515 4.437z" fill="#FFF"/><path d="M-5-10H95V90H-5z"/></g></svg>