<svg width="12" height="20" viewBox="0 0 12 20" xmlns="http://www.w3.org/2000/svg"><title>ic_water</title><g fill="none" fill-rule="evenodd"><path d="M-6-2h24v24H-6z"/><path d="M12 8.47v-.59c0-.217-.2-.404-.2-.507V5.117c-.4-.642-1.022-1.963-3.678-2.216.013-.014-.002-.025-.002-.025s-.725-.032-.725-.5c0-.063.005-.094.005-.103V.786s.2-.132.2-.296V.195C7.6.03 7.478 0 7.316 0H4.683C4.522 0 4.4.03 4.4.195V.49c0 .164.2.296.2.296v1.59c0 .467-.714.5-.714.5s-.018.01-.005.024C1.17 3.155.6 4.524.2 5.152v2.22c0 .104-.2.29-.2.508v.59c0 .218.2.406.2.51v5.783c0 .103-.2.29-.2.507v.59c0 .218.2.406.2.51v3.04c0 .325.35.59.63.59h10.34c.277 0 .63-.265.63-.592v-3.04c0-.102.2-.29.2-.507v-.59c0-.217-.2-.405-.2-.507V8.978c0-.102.2-.29.2-.507z" fill="#FFF"/></g></svg>