<svg width="36" height="60" viewBox="0 0 36 60" xmlns="http://www.w3.org/2000/svg"><title>ic_water_sad</title><g fill="none" fill-rule="evenodd"><path d="M-18-6h72v72h-72z"/><path d="M36 25.32V23.55c0-.648-.6-1.21-.6-1.516v-6.744c-1.2-1.917-3.066-5.864-11.034-6.62.04-.048-.005-.08-.005-.08s-2.175-.094-2.175-1.493c0-.19.014-.282.014-.31V2.35s.6-.396.6-.885V.58c0-.487-.366-.58-.85-.58h-7.903c-.485 0-.847.093-.847.58v.885c0 .49.6.884.6.884V7.1c0 1.398-2.143 1.492-2.143 1.492s-.052.032-.014.076C3.506 9.43 1.8 13.52.6 15.398v6.638c0 .307-.6.868-.6 1.516v1.767c0 .646.6 1.207.6 1.515v17.288c0 .307-.6.868-.6 1.516v1.766c0 .648.6 1.21.6 1.516v9.086c0 .975 1.054 1.767 1.89 1.767h31.016c.836 0 1.894-.793 1.894-1.77v-9.084c0-.307.6-.867.6-1.515v-1.768c0-.647-.6-1.208-.6-1.516V26.835c0-.307.6-.868.6-1.515zM21.375 52.414c0-1.876-1.51-3.396-3.375-3.396-1.864 0-3.375 1.52-3.375 3.395h6.75zm6.188-7.924c.93 0 1.687-.76 1.687-1.698 0-.937-.756-1.698-1.688-1.698-.93 0-1.687.76-1.687 1.698s.756 1.7 1.688 1.7zm-19.125 0c.93 0 1.687-.76 1.687-1.698 0-.937-.756-1.698-1.688-1.698-.93 0-1.687.76-1.687 1.698s.756 1.7 1.688 1.7z" fill="#329BC3"/></g></svg>