<svg width="160" height="41" viewBox="0 0 160 41" xmlns="http://www.w3.org/2000/svg"><title>logo_light</title><defs><path id="a" d="M0 39.667h159.844V0H0z"/></defs><g fill="none" fill-rule="evenodd"><path d="M100.13 40.216H69.325c-2.088 0-3.797-1.725-3.797-3.833v-31.1c0-2.107 1.708-3.832 3.796-3.832h30.803c2.087 0 3.796 1.726 3.796 3.834v31.1c0 2.107-1.71 3.832-3.797 3.832z" stroke="#FFF"/><path d="M83.065 33.723H86.4l-.104.344h-3.128l-.103-.344zm-4.23-.21c-.508-.136-.99-.337-1.435-.592v1.15c.022-.002.045-.003.068-.003h1.2l.166-.553zm11.795 0c.548-.15 1.066-.374 1.542-.66v1.217c-.024-.002-.048-.003-.073-.003h-1.304l-.166-.555zm2.215-1.132c1.407-1.13 2.308-2.874 2.308-4.83V15.972c0-3.063-2.207-5.604-5.103-6.09V8.048c.537-.028.963-.476.963-1.025v-.157c0-.566-.454-1.025-1.016-1.025H79.57c-.56 0-1.016.46-1.016 1.025v.157c0 .51.368.933.85 1.012v1.845c-2.895.487-5.102 3.028-5.102 6.09V27.55c0 2.01.952 3.795 2.425 4.923v2.603c0 .413.332.748.74.748H92.1c.408 0 .74-.335.74-.748v-.2h.005v-2.495zM88.883 8.05H82.76V9.8h6.123V8.05zm-3.96 4.26c.586.96 1.178 1.918 1.752 2.885.39.655.73 1.34 1.134 1.983.34.54.34 1.09.173 1.667-.268.922-.772 1.722-1.328 2.486-.728 1.002-1.512 1.962-2.218 2.98-1.054 1.515-1.917 3.137-2.313 4.965-.136.63-.173 1.28-.25 1.87-.162-.28-.374-.64-.58-1.002-.475-.828-.963-1.65-1.417-2.488-.994-1.835-.767-3.6.424-5.24.69-.95 1.48-1.828 2.24-2.724.75-.88 1.5-1.758 2.035-2.8.725-1.42.852-2.883.337-4.398-.017-.05-.025-.105-.037-.157l.05-.025zm4.816 8.914c.123.54.275 1.075.366 1.62.213 1.264.087 2.494-.48 3.655-.563 1.154-1.445 2.02-2.49 2.73-1.478 1.004-3.12 1.637-4.82 2.132-.028.008-.058.006-.203.017.263-.41.435-.81.72-1.096.74-.733 1.51-1.434 2.3-2.114 1.158-.998 2.316-1.99 3.18-3.282.74-1.107 1.22-2.304 1.334-3.64.03-.01.06-.016.092-.024zM0 31.93V11.71h14.413v3.673H3.783v5.526H13.84v3.528H3.782v7.493H0zm27.65-20.54h-4.127l-2.12 3.935v.174h3.094l3.152-3.964v-.145zm.2 8.246l.114-1.968h3.353V31.93H28.02l-.17-2.082c-.803 1.678-3.01 2.488-4.585 2.516-4.184.03-7.278-2.574-7.278-7.58 0-4.917 3.238-7.49 7.364-7.463 1.892 0 3.697.898 4.5 2.316zM46.7 30.108c-1.632 1.62-3.35 2.257-5.443 2.257-4.097 0-7.507-2.49-7.507-7.55 0-5.064 3.41-7.55 7.507-7.55 2.005 0 3.553.577 5.1 2.11l-2.206 2.343c-.83-.75-1.862-1.128-2.836-1.128-2.35 0-4.07 1.736-4.07 4.224 0 2.72 1.836 4.166 4.013 4.166 1.118 0 2.235-.32 3.094-1.186l2.35 2.314zm1.547 1.823h3.495V17.61h-3.495v14.32zm3.81-18.282c0 2.748-4.126 2.748-4.126 0 0-2.75 4.128-2.75 4.128 0zm2.837 18.283h3.467V11.71h-3.466v20.22zm69.882-15.303c-1.346-1.302-3.353-2.025-5.1-2.025-4.298 0-6.906 3.298-6.906 7.464 0 3.327 1.92 6.77 6.906 6.77 1.576 0 2.95-.348 4.527-1.62v-3.588h-5.13v-3.414h8.597v8.535c-1.977 2.284-4.47 3.644-7.994 3.644-7.536 0-10.602-5.005-10.602-10.328 0-5.7 3.524-10.965 10.602-10.965 2.693 0 5.386 1.043 7.45 3.097l-2.35 2.43zm16.617-5.236h-4.127l-2.12 3.935v.174h3.095l3.153-3.964v-.145zm.2 8.246l.115-1.968h3.353V31.93h-3.295l-.172-2.082c-.803 1.678-3.008 2.488-4.585 2.516-4.183.03-7.277-2.574-7.277-7.58 0-4.917 3.238-7.49 7.365-7.463 1.89 0 3.695.898 4.498 2.316zm15.643 1.822c-1.003-.955-2.148-1.272-3.496-1.272-1.66 0-2.578.52-2.578 1.417 0 .926.83 1.447 2.635 1.562 2.666.174 6.047.78 6.047 4.57 0 2.518-2.035 4.687-6.075 4.687-2.236 0-4.47-.376-6.534-2.545l1.72-2.517c1.002 1.128 3.295 1.967 4.87 1.996 1.318.03 2.55-.665 2.55-1.707 0-.984-.8-1.39-2.808-1.505-2.664-.203-5.845-1.186-5.845-4.427 0-3.297 3.38-4.455 5.96-4.455 2.207 0 3.87.435 5.502 1.88l-1.95 2.315zm-19.826-.983c-2.32 0-4.184 1.59-4.184 4.31 0 2.72 1.863 4.34 4.184 4.34 5.5 0 5.5-8.65 0-8.65zm-113.744 0c-2.32 0-4.183 1.59-4.183 4.31 0 2.72 1.862 4.34 4.183 4.34 5.502 0 5.502-8.65 0-8.65z" fill="#FFF"/></g></svg>